<svg width="32" height="32" viewBox="0 0 32 32" fill="none" xmlns="http://www.w3.org/2000/svg">
  <filter id="shadow" x="-2" y="-2" width="40" height="40">
    <feDropShadow dx="1" dy="1" stdDeviation="1.5" flood-opacity="0.3"/>
  </filter>
  <!-- Hand Pointer Shape -->
  <path d="M10.5 2C9.1 2 8 3.1 8 4.5V13.1L6.6 11.9C6.2 11.5 5.6 11.4 5.1 11.6C4.4 11.8 4 12.5 4 13.2V15.5L9.6 24.2C10.4 25.4 11.8 26 13.2 26H20.4C22.6 26 24.3 24.2 24.3 22V13.5C24.3 12.1 23.2 11 21.8 11C21.7 11 21.5 11 21.4 11V9.5C21.4 8.1 20.3 7 18.9 7C18.7 7 18.6 7 18.4 7V5.5C18.4 4.1 17.3 3 15.9 3C15.7 3 15.6 3 15.4 3V4.5C15.4 3.1 14.3 2 12.9 2C12.9 2 10.5 2 10.5 2Z" 
        fill="#f97316" 
        stroke="white" 
        stroke-width="1.5" 
        stroke-linejoin="round"
        filter="url(#shadow)"/>
</svg>
